Coordinates
version=1
nRows=20
nColumns=34
inDegrees=yes

Units are S.I. units (second, meters, Newtons, ...)
If the header above contains a line with 'inDegrees', this indicates whether rotational values are in degrees (yes) or radians (no).

endheader
time	pelvis_tilt	pelvis_list	pelvis_rotation	pelvis_tx	pelvis_ty	pelvis_tz	hip_flexion_r	hip_adduction_r	hip_rotation_r	knee_angle_r	ankle_angle_r	subtalar_angle_r	mtp_angle_r	hip_flexion_l	hip_adduction_l	hip_rotation_l	knee_angle_l	ankle_angle_l	subtalar_angle_l	mtp_angle_l	lumbar_extension	lumbar_bending	lumbar_rotation	arm_flex_r	arm_add_r	arm_rot_r	elbow_flex_r	pro_sup_r	arm_flex_l	arm_add_l	arm_rot_l	elbow_flex_l	pro_sup_l
      3.15000000	    -11.42928120	     -0.64167928	     10.18267479	      1.79660952	      0.90564811	     -0.05810007	      2.40261147	     -7.51551188	    -21.21617841	      8.07604972	    -15.75605202	     -0.00707023	      0.00000000	      7.22461401	     -6.16271960	     -7.18248864	      5.65415674	    -16.00137259	      4.90108885	      0.00000000	      6.17887009	     -7.48832407	     12.92197705	    156.39845905	     -5.43775746	     52.63092685	     13.93194433	     77.53830362	    133.49137715	      8.64566363	     25.71336585	     78.32223147	     90.87230961
      3.16666670	    -11.58259566	     -0.87939284	     10.16709190	      1.80207735	      0.90354952	     -0.06037452	      2.45486675	     -7.44667614	    -20.71584027	      8.62958888	    -16.06952158	     -0.37729749	      0.00000000	      7.04591740	     -6.24242691	     -7.31487638	      5.76044441	    -16.07041392	      4.20856563	      0.00000000	      6.22797764	     -7.46263580	     12.54532937	    158.28112172	     -4.42786760	     52.94267533	     15.72002260	     77.34559952	    134.25907430	      8.42838460	     25.99852613	     79.30732407	     91.31095356
      3.18333330	    -11.66572393	     -1.08408487	     10.16625338	      1.80770911	      0.90142896	     -0.06331690	      2.49930102	     -7.45836887	    -20.21790474	      9.52591314	    -16.07789854	     -0.79063611	      0.00000000	      6.71621450	     -6.24458871	     -7.47553830	      5.81637816	    -15.79661494	      3.53479598	      0.00000000	      6.28583445	     -7.35050993	     12.10313527	    159.86995495	     -3.51360725	     53.13082581	     16.72215582	     77.35970981	    134.62939979	      8.36994755	     26.18580109	     79.86509261	     91.62995457
      3.20000000	    -11.75129885	     -1.31670818	     10.25299969	      1.81365174	      0.89834424	     -0.06615861	      2.35486100	     -7.39675208	    -20.07195575	     10.16713498	    -16.06340233	     -0.88113494	      0.00000000	      6.26636843	     -6.25604872	     -7.67303002	      5.70077562	    -15.52739892	      3.28161134	      0.00000000	      6.65551442	     -7.26506134	     11.52138405	    160.74450568	     -2.95822431	     53.13882190	     17.03904666	     77.37557383	    134.24843446	      8.85206467	     26.49295868	     79.93939600	     91.68552492
      3.21666670	    -11.76819596	     -1.49955866	     10.11236267	      1.81882062	      0.89484774	     -0.06797925	      2.48364709	     -7.34506763	    -19.09224074	     11.29124118	    -15.52929966	     -2.39532741	      0.00000000	      5.88027393	     -6.28020281	     -7.51019336	      5.98481576	    -14.87234217	      2.10295863	      0.00000000	      6.35384637	     -7.06192810	     10.86135913	    162.93762889	     -2.28719788	     58.38597753	     15.98553667	     80.10189929	    134.74618520	      8.47910756	     26.99024156	     81.36687333	     95.48247565
      3.23333330	    -11.75818584	     -1.69559048	      9.99662386	      1.82456782	      0.89206777	     -0.06973296	      2.30654297	     -7.20820724	    -18.81902018	     11.81613266	    -14.81555202	     -2.75996959	      0.00000000	      5.27651716	     -6.37700666	     -7.68175952	      5.97616674	    -14.07807393	      1.63020564	      0.00000000	      6.42560149	     -7.07099268	     10.26291372	    163.53170156	     -2.41436556	     58.46486401	     16.14287816	     80.17316175	    134.19201172	      9.01442320	     27.20292973	     81.89733849	     95.58356742
      3.25000000	    -11.73656720	     -1.75887911	      9.88489363	      1.82987819	      0.89032346	     -0.07173076	      2.03616424	     -7.14716331	    -18.38573185	     12.08412687	    -14.24057566	     -3.36048339	      0.00000000	      4.62822299	     -6.32706312	     -7.79657170	      5.83098537	    -13.38028088	      1.20804966	      0.00000000	      6.36778640	     -6.95384579	      9.76523967	    163.90360770	     -2.58040882	     59.43762696	     17.37987979	     80.69074981	    133.01701852	      8.74599209	     27.28868252	     84.00241528	     96.00089544
      3.26666670	    -11.71837288	     -1.90743982	      9.77702450	      1.83469663	      0.88950975	     -0.07415331	      1.74389666	     -6.99344194	    -18.21988270	     12.17525970	    -13.86679641	     -3.83975437	      0.00000000	      4.04038010	     -6.38847731	     -8.07020079	      5.62369725	    -12.66588155	      1.02318164	      0.00000000	      6.47742404	     -6.73686473	      9.25064735	    163.62308726	     -3.12828558	     60.58365416	     18.92734001	     81.30431612	    131.34665676	      8.52621272	     27.40604529	     85.94833014	     96.43712258
      3.28333330	    -11.63408029	     -2.02530692	      9.64843090	      1.83924246	      0.88830659	     -0.07694336	      1.44867036	     -6.89005437	    -17.94845160	     12.39856218	    -13.60325004	     -4.51060544	      0.00000000	      3.46901326	     -6.41930630	     -8.28406091	      5.50283968	    -11.86215195	      0.98887465	      0.00000000	      6.44101963	     -6.48023302	      8.83816482	    163.14973414	     -4.08094087	     61.58189948	     21.39295634	     81.91550399	    129.51694757	      8.35474375	     27.38933355	     88.02058181	     96.86012955
      3.30000000	    -11.50089671	     -2.07276119	      9.55536239	      1.84408628	      0.88643972	     -0.07983376	      1.15470568	     -6.87395232	    -17.53291063	     12.83410074	    -13.52538981	     -5.38487212	      0.00000000	      2.87629963	     -6.38191173	     -8.24922669	      5.43436449	    -10.97271203	      1.14244809	      0.00000000	      6.34197571	     -6.20362930	      8.37257501	    162.35973338	     -5.30817725	     62.29624122	     24.74837216	     82.45048946	    127.66152271	      8.06857640	     27.46260277	     90.10176916	     97.22045209
      3.31666670	    -11.36905196	     -2.10925540	      9.50040084	      1.84946042	      0.88417411	     -0.08270164	      1.03602731	     -6.91703908	    -16.95735751	     13.67648683	    -13.53375793	     -6.51726364	      0.00000000	      2.37725478	     -6.36392876	     -8.10701048	      5.59213552	    -10.00282231	      1.35235571	      0.00000000	      6.22238108	     -5.98831576	      7.84662746	    161.37600699	     -7.06976876	     62.64728512	     29.05642318	     82.97495861	    125.79770633	      7.71542746	     27.64972910	     92.23443495	     97.56733820
      3.33333330	    -11.35814797	     -2.14401284	      9.55610115	      1.85533477	      0.88175937	     -0.08594763	      1.33807885	     -7.08348182	    -16.15360801	     15.14811934	    -13.60305906	     -7.86536727	      0.00000000	      2.06347442	     -6.33057538	     -7.82312432	      5.89957523	     -8.94770622	      1.60725557	      0.00000000	      6.24810640	     -6.16080878	      7.32854716	    160.03928075	    -10.02281241	     61.58172825	     35.21196760	     83.91463784	    124.11544888	      8.00039468	     28.24206680	     93.52578054	     98.22377090
      3.35000000	    -10.75968298	     -2.27518693	      9.68109752	      1.86159453	      0.88045284	     -0.08961165	      1.22679436	     -7.14647804	    -15.43648110	     16.93843302	    -14.13159470	     -9.23670071	      0.00000000	      0.89285577	     -6.45788343	     -7.45279599	      5.82099734	     -8.33909347	      1.83538756	      0.00000000	      5.82686345	     -5.63961316	      6.53906540	    158.44179345	    -11.50424726	     61.48986922	     39.07444070	     84.35674207	    121.41446180	      7.05931313	     28.29572220	     96.20842879	     98.40239116
      3.36666670	    -10.62700525	     -2.50638313	      9.84106620	      1.86753628	      0.87927684	     -0.09289867	      2.28056327	     -7.33657938	    -14.56848900	     19.74580650	    -14.75527755	    -11.11094366	      0.00000000	      0.40741956	     -6.64235439	     -7.26454246	      6.05720276	     -7.56132981	      2.14424349	      0.00000000	      5.92216826	     -5.68890854	      5.66541054	    155.86192318	    -14.88801468	     58.73217832	     46.05728563	     85.56535231	    118.84284612	      7.14407729	     29.03196196	     97.54050349	     98.95766227
      3.38333330	    -10.16035118	     -2.89456455	     10.07405410	      1.87340242	      0.88009468	     -0.09559183	      3.45024518	     -7.39082258	    -13.96242149	     23.17154064	    -15.65631666	    -12.90247567	      0.00000000	     -0.55513967	     -7.03629478	     -6.97893124	      5.93832469	     -6.86836281	      2.54330884	      0.00000000	      5.62452962	     -5.04383611	      4.64768190	    153.37424276	    -17.04877154	     57.26568282	     51.75182094	     86.63392427	    115.55589169	      6.37532310	     29.42169126	     99.97579335	     99.29519509
      3.40000000	     -9.44613808	     -3.42933126	     10.25231347	      1.87934157	      0.88226209	     -0.09735634	      4.96542645	     -7.30904052	    -13.60093550	     27.37260298	    -16.76376055	    -14.71682693	      0.00000000	     -1.71003037	     -7.71508887	     -7.16270029	      5.90334417	     -6.33913657	      3.05894706	      0.00000000	      5.19995436	     -4.47335890	      3.60562242	    149.85328855	    -20.16383301	     55.09134957	     58.50730218	     87.92121590	    111.81513237	      5.80102627	     30.02612044	    101.52628273	     99.68269759
      3.41666670	     -8.64841494	     -4.05206825	     10.47451524	      1.88490376	      0.88361706	     -0.09847941	      7.02907916	     -7.14360138	    -13.29877783	     32.39194961	    -17.82224506	    -16.43160007	      0.00000000	     -2.81775568	     -8.56999322	     -7.24941794	      6.05913121	     -5.54361626	      3.71585754	      0.00000000	      4.51480741	     -3.72131061	      2.48686586	    146.44385211	    -23.11102194	     53.33298164	     65.15602939	     89.23176795	    107.78512555	      5.14213164	     30.47544887	    103.28146455	    100.02578089
      3.43333330	     -7.85328257	     -4.67486591	     10.67208975	      1.89007476	      0.88297406	     -0.09888609	      9.62827876	     -6.91350861	    -12.87055286	     37.96396425	    -18.10328818	    -17.52964408	      0.00000000	     -3.81221706	     -9.50216082	     -7.33154686	      6.46977164	     -4.45644292	      4.28086332	      0.00000000	      3.62660761	     -2.99415116	      1.24986946	    143.27155298	    -25.95492313	     51.85486168	     71.25095792	     90.33317152	    103.81810183	      4.38412000	     30.74128347	    104.94879705	    100.27753426
      3.45000000	     -7.10350154	     -5.24411437	     10.84668207	      1.89556110	      0.88087801	     -0.09893590	     12.48973378	     -6.62299024	    -12.48705814	     43.37933376	    -16.76192414	    -17.36140859	      0.00000000	     -4.79664652	    -10.43314920	     -7.40596890	      6.93452601	     -3.35011279	      4.74320608	      0.00000000	      2.73391369	     -2.38130056	     -0.01078072	    139.75395499	    -28.65281911	     50.03583633	     76.98244305	     91.34716112	     99.95278979	      3.55657403	     30.94597571	    106.07496215	    100.49445313
      3.46666670	     -6.52390336	     -5.83849761	     10.98780428	      1.90185921	      0.87842650	     -0.09930378	     15.34361889	     -6.19297499	    -12.34461375	     47.67583774	    -13.81286351	    -15.71854892	      0.00000000	     -5.75196500	    -11.37862834	     -7.35394877	      7.22786366	     -2.37007209	      5.24796604	      0.00000000	      1.93181079	     -1.65750284	     -1.25630905	    136.42425326	    -31.03412405	     48.48145208	     82.19229978	     91.94954607	     96.08434769	      2.56752868	     31.01069684	    107.56651513	    100.60113774
